<?xml version="1.0" encoding="UTF-8"?>
<svg id="Ebene_2" data-name="Ebene 2" xmlns="http://www.w3.org/2000/svg" xmlns:xlink="http://www.w3.org/1999/xlink" viewBox="0 0 3531.97 1986.74">
  <defs>
    <style>
      .cls-1 {
        fill: #309577;
      }

      .cls-1, .cls-2 {
        stroke-width: 0px;
      }

      .cls-2 {
        fill: none;
      }

      .cls-3 {
        clip-path: url(#clippath);
      }
    </style>
    <clipPath id="clippath">
      <rect class="cls-2" width="3531.97" height="1986.74"/>
    </clipPath>
  </defs>
  <g id="Unbenannt_-_13_._November_2023_18_._25_._12_Bild" data-name="Unbenannt - ‎13‎. ‎November‎ ‎2023 ‎18‎.‎25‎.‎12 Bild">
    <g class="cls-3">
      <g>
        <ellipse class="cls-1" cx="647.52" cy="307.78" rx="163.55" ry="202.92"/>
        <ellipse class="cls-1" cx="647.52" cy="895.33" rx="163.55" ry="202.92"/>
        <ellipse class="cls-1" cx="556.2" cy="1513.38" rx="191.7" ry="154.5" transform="translate(-1049.79 1656.49) rotate(-74.91)"/>
        <ellipse class="cls-1" cx="369.63" cy="2025.5" rx="152.02" ry="122.53" transform="translate(-1592.7 1402.16) rotate(-62.04)"/>
        <ellipse class="cls-1" cx="283.58" cy="111.32" rx="93.67" ry="108.82" transform="translate(-9.2 27.13) rotate(-5.39)"/>
        <ellipse class="cls-1" cx="332.12" cy="590.74" rx="88.22" ry="105.94" transform="translate(-54.01 33.8) rotate(-5.39)"/>
        <ellipse class="cls-1" cx="341.01" cy="1155.48" rx="114.87" ry="102.41" transform="translate(-842.68 1379.77) rotate(-84.29)"/>
        <ellipse class="cls-1" cx="189.23" cy="1654.43" rx="103.93" ry="95.72" transform="translate(-1412 1197.25) rotate(-67.54)"/>
        <ellipse class="cls-1" cx="823.58" cy="1824.7" rx="153.62" ry="103.2" transform="translate(-1177.34 1888.71) rotate(-67.54)"/>
        <ellipse class="cls-1" cx="981.17" cy="1255.77" rx="174.14" ry="121.93" transform="translate(-435.46 1985.69) rotate(-79.26)"/>
        <ellipse class="cls-1" cx="1055.33" cy="553.31" rx="143.4" ry="181.51"/>
        <ellipse class="cls-1" cx="950.11" cy="-75.45" rx="112.34" ry="137.7" transform="translate(40.1 207.89) rotate(-12.75)"/>
        <ellipse class="cls-1" cx="41.8" cy="2025.5" rx="109.41" ry="88.18" transform="translate(-1846.03 1290.31) rotate(-67.54)"/>
      </g>
      <g>
        <ellipse class="cls-1" cx="2833.55" cy="1811.68" rx="202.92" ry="163.55" transform="translate(347.73 4077.05) rotate(-74.94)"/>
        <ellipse class="cls-1" cx="2986.24" cy="1244.31" rx="202.92" ry="163.55" transform="translate(1008.62 3804.58) rotate(-74.94)"/>
        <ellipse class="cls-1" cx="3235.05" cy="671.24" rx="191.7" ry="154.5" transform="translate(1029.76 3131.49) rotate(-59.85)"/>
        <ellipse class="cls-1" cx="3548.29" cy="225.19" rx="152.02" ry="122.53" transform="translate(962.49 2665.42) rotate(-46.97)"/>
        <ellipse class="cls-1" cx="3211.65" cy="1620.41" rx="105.94" ry="88.22" transform="translate(1074.6 4514.1) rotate(-80.33)"/>
        <ellipse class="cls-1" cx="3349.83" cy="1072.76" rx="114.87" ry="102.41" transform="translate(1158.6 3824.25) rotate(-69.22)"/>
        <ellipse class="cls-1" cx="3626.06" cy="630.4" rx="103.93" ry="95.72" transform="translate(917.53 3122.3) rotate(-52.48)"/>
        <ellipse class="cls-1" cx="3057.75" cy="301.13" rx="153.62" ry="103.2" transform="translate(956.52 2542.85) rotate(-52.48)"/>
        <ellipse class="cls-1" cx="2757.73" cy="809.56" rx="174.14" ry="121.93" transform="translate(828.46 2939.9) rotate(-64.2)"/>
        <ellipse class="cls-1" cx="2503.56" cy="1468.6" rx="181.51" ry="143.4" transform="translate(434.79 3504.48) rotate(-74.94)"/>
        <ellipse class="cls-1" cx="2408.73" cy="2065.49" rx="168.2" ry="112.34" transform="translate(247.88 4389.06) rotate(-87.69)"/>
      </g>
      <g>
        <ellipse class="cls-1" cx="2097.23" cy="392.97" rx="120.17" ry="96.85" transform="translate(479.91 1784.75) rotate(-51.33)"/>
        <ellipse class="cls-1" cx="2314.66" cy="121.32" rx="120.17" ry="96.85" transform="translate(773.54 1852.6) rotate(-51.33)"/>
        <ellipse class="cls-1" cx="1914.03" cy="668.08" rx="120.17" ry="96.85" transform="translate(476.52 2097.55) rotate(-64.08)"/>
        <ellipse class="cls-1" cx="2193.21" cy="612.19" rx="58.96" ry="52.37" transform="translate(477.82 2109.65) rotate(-56.72)"/>
        <ellipse class="cls-1" cx="2347.76" cy="378.86" rx="62.73" ry="52.24" transform="translate(742.6 2133.57) rotate(-56.72)"/>
        <ellipse class="cls-1" cx="2552.63" cy="114.48" rx="68.02" ry="60.65" transform="translate(685.27 1858.6) rotate(-45.61)"/>
        <ellipse class="cls-1" cx="1999.55" cy="128.54" rx="107.49" ry="84.92" transform="translate(649.71 1609.3) rotate(-51.33)"/>
        <ellipse class="cls-1" cx="1776.12" cy="401.23" rx="109.81" ry="89.21" transform="translate(638.89 1823.3) rotate(-64.08)"/>
        <ellipse class="cls-1" cx="1685.31" cy="1258" rx="102.91" ry="83.26" transform="translate(196.01 2742.87) rotate(-81.65)"/>
        <ellipse class="cls-1" cx="1629.44" cy="1550.55" rx="102.91" ry="83.26" transform="translate(-141.2 2937.68) rotate(-81.65)"/>
        <ellipse class="cls-1" cx="1616.17" cy="1868.03" rx="78.18" ry="97.8" transform="translate(-201.17 195.06) rotate(-6.5)"/>
        <ellipse class="cls-1" cx="1782.74" cy="959.64" rx="102.69" ry="83.43" transform="translate(140.38 2143.59) rotate(-64.08)"/>
        <ellipse class="cls-1" cx="1898.23" cy="1181.05" rx="75.49" ry="56.52" transform="translate(334.01 2778.35) rotate(-77.49)"/>
        <ellipse class="cls-1" cx="2002.5" cy="904.78" rx="73.84" ry="66.65" transform="translate(147.17 2082.24) rotate(-56.72)"/>
        <ellipse class="cls-1" cx="1815.51" cy="1432.6" rx="53.62" ry="45" transform="translate(3.25 2869.31) rotate(-76.68)"/>
        <ellipse class="cls-1" cx="1757.39" cy="1712.83" rx="51.99" ry="58.42"/>
        <ellipse class="cls-1" cx="1785.55" cy="1949.47" rx="48.29" ry="53.19" transform="translate(-488.51 601.41) rotate(-16.85)"/>
        <ellipse class="cls-1" cx="1441.16" cy="1949.47" rx="52.1" ry="78.56" transform="translate(-386.02 356.11) rotate(-12.44)"/>
        <ellipse class="cls-1" cx="1428.99" cy="1694.35" rx="61.82" ry="88.67" transform="translate(-34.52 29.73) rotate(-1.18)"/>
        <ellipse class="cls-1" cx="1458.83" cy="1336.67" rx="92.05" ry="73.01" transform="translate(-81.07 2579.09) rotate(-81.39)"/>
        <ellipse class="cls-1" cx="1525.62" cy="1026.56" rx="101.6" ry="83.97" transform="translate(12.84 2071.96) rotate(-68.58)"/>
        <ellipse class="cls-1" cx="1611.73" cy="728.03" rx="101.6" ry="83.97" transform="translate(345.42 1962.6) rotate(-68.58)"/>
      </g>
    </g>
  </g>
</svg>